# xmcd CD database file
#
# Track frame offsets:
#	150
#	12882
#	26169
#	39047
#	51631
#	64605
#	77960
#	90185
#	102781
#	114359
#	126701
#	139063
#	151874
#	163727
#	175427
#	188157
#	201182
#	213526
#	225817
#	236788
#	249260
#	261412
#	273745
#	285701
#	297396
#
# Disc length: 4107 seconds
#
# Revision: 0
# Processed by: cddbd v1.5PL3 Copyright (c) Steve Scherf et al.
# Submitted via: CDex 1.51
#
DISCID=6b100919
DTITLE=Al Dexter - Pistol Packin' Mama
DYEAR=1900
DGENRE=Country
TTITLE0=Pistol Packin' Mama
TTITLE1=Poor Little Honky-Tonk Gal
TTITLE2=Honky-Tonk Chinese Dime
TTITLE3=Sundown Polka
TTITLE4=It's Up To You
TTITLE5=So Long Pal
TTITLE6=Too Late To Worry, Too Blue To Cry
TTITLE7=Rosalita
TTITLE8=I'll Wait For You
TTITLE9=Maybe, Baby, It's Me
TTITLE10=Guitar Polka
TTITLE11=I'm Losin' My Mind Over You
TTITLE12=Honey, Do You Think It's Wrong?
TTITLE13=Who's Gonna Love You When I'm Gone?
TTITLE14=Wine, Women And Song
TTITLE15=Love Lanes Of Yesterday
TTITLE16=I'm Lost Without You
TTITLE17=Triflin' Gal 
TTITLE18=Kokomo Island
TTITLE19=I Learned About Love
TTITLE20=That Cute Little Girl Down At The Roadside Inn
TTITLE21=Remember You're Mine
TTITLE22=New Broom Boogie
TTITLE23=I'm Startin', Sweetheart, Again
TTITLE24=Rock And Rye Rag
EXTD=
EXTT0=
EXTT1=
EXTT2=
EXTT3=
EXTT4=
EXTT5=
EXTT6=
EXTT7=
EXTT8=
EXTT9=
EXTT10=
EXTT11=
EXTT12=
EXTT13=
EXTT14=
EXTT15=
EXTT16=
EXTT17=
EXTT18=
EXTT19=
EXTT20=
EXTT21=
EXTT22=
EXTT23=
EXTT24=
PLAYORDER=
